<svg width="512" height="512" viewBox="0 0 512 512" fill="none" xmlns="http://www.w3.org/2000/svg">
  <defs>
    <linearGradient id="shieldGradient" x1="256" y1="50" x2="256" y2="462" gradientUnits="userSpaceOnUse">
      <stop offset="0%" stop-color="#7B2CBF" /> <stop offset="100%" stop-color="#240046" /> </linearGradient>
    
    <filter id="glow" x="-20%" y="-20%" width="140%" height="140%">
      <feGaussianBlur stdDeviation="15" result="coloredBlur"/>
      <feMerge>
        <feMergeNode in="coloredBlur"/>
        <feMergeNode in="SourceGraphic"/>
      </feMerge>
    </filter>
  </defs>

  <g filter="url(#glow)">
    <path d="M256 50 C150 50, 100 100, 100 180 V 260 C 100 380, 180 430, 256 480 C 332 430, 412 380, 412 260 V 180 C 412 100, 362 50, 256 50 Z" 
          fill="url(#shieldGradient)" 
          stroke="#9D4EDD" 
          stroke-width="8"/>
          
    <path d="M150 180 L 150 300 M 150 240 L 190 240" stroke="#E0AAFF" stroke-width="6" stroke-linecap="round" stroke-opacity="0.3"/>
    <circle cx="190" cy="240" r="6" fill="#E0AAFF" fill-opacity="0.5" />
    
    <path d="M362 180 L 362 260 M 362 220 L 320 220" stroke="#E0AAFF" stroke-width="6" stroke-linecap="round" stroke-opacity="0.3"/>
    <circle cx="320" cy="220" r="6" fill="#E0AAFF" fill-opacity="0.5" />

    <path d="M190 180 V 330 M 270 180 V 330 M 190 255 H 270" 
          stroke="white" stroke-width="20" stroke-linecap="round" stroke-linejoin="round" />
          
    <path d="M 360 210 C 360 190, 340 170, 315 180 C 290 190, 290 320, 315 330 C 340 340, 360 320, 360 300" 
          stroke="white" stroke-width="20" stroke-linecap="round" fill="none" />

    <!-- Small plus placed to the left-top side of the 'H' (nudge slightly more left) -->
    <g transform="translate(150,160) scale(1)">
      <rect x="-14" y="-36" width="28" height="72" rx="6" fill="white" opacity="0.98" />
      <rect x="-36" y="-14" width="72" height="28" rx="6" fill="white" opacity="0.98" />
    </g>
  </g>
</svg>